<?xml version="1.0" encoding="utf-8"?>
<!-- Generator: Adobe Illustrator 17.0.2, SVG Export Plug-In . SVG Version: 6.00 Build 0)  -->
<!DOCTYPE svg PUBLIC "-//W3C//DTD SVG 1.1//EN" "http://www.w3.org/Graphics/SVG/1.1/DTD/svg11.dtd">
<svg version="1.1" id="Layer_1" xmlns="http://www.w3.org/2000/svg" xmlns:xlink="http://www.w3.org/1999/xlink" x="0px" y="0px"
	 width="32px" height="32px" viewBox="0 0 32 32" enable-background="new 0 0 32 32" xml:space="preserve">
<path fill="#1C1C1C" d="M27,12H8V8.882C8,4.529,11.529,1,15.882,1h0.235c2.688,0,5.058,1.348,6.481,3.401l0.68-0.68
	C21.643,1.47,18.996,0,16,0c-4.971,0-9,4.029-9,9v3H5c-1.105,0-2,0.895-2,2v16c0,1.105,0.895,2,2,2h22c1.105,0,2-0.895,2-2V14
	C29,12.895,28.105,12,27,12z M28,29c0,1.105-0.895,2-2,2H6c-1.105,0-2-0.895-2-2V15c0-1.105,0.895-2,2-2h20c1.105,0,2,0.895,2,2V29z
	"/>
</svg>
