<?xml version="1.0" encoding="utf-8"?>
<!-- Generator: Adobe Illustrator 17.0.2, SVG Export Plug-In . SVG Version: 6.00 Build 0)  -->
<!DOCTYPE svg PUBLIC "-//W3C//DTD SVG 1.1//EN" "http://www.w3.org/Graphics/SVG/1.1/DTD/svg11.dtd">
<svg version="1.1" id="Layer_1" xmlns="http://www.w3.org/2000/svg" xmlns:xlink="http://www.w3.org/1999/xlink" x="0px" y="0px"
	 width="32px" height="32px" viewBox="0 0 32 32" enable-background="new 0 0 32 32" xml:space="preserve">
<path fill="#1C1C1C" d="M27,12h-2V9c0-4.971-4.029-9-9-9S7,4.029,7,9v3H5c-1.105,0-2,0.895-2,2v16c0,1.105,0.895,2,2,2h22
	c1.105,0,2-0.895,2-2V14C29,12.895,28.105,12,27,12z M8,8.882C8,4.529,11.529,1,15.882,1h0.235C20.471,1,24,4.529,24,8.882V12H8
	V8.882z M28,29c0,1.105-0.895,2-2,2H6c-1.105,0-2-0.895-2-2V15c0-1.105,0.895-2,2-2h20c1.105,0,2,0.895,2,2V29z"/>
</svg>
